<?xml version="1.0" encoding="utf-8"?>
<!-- Generator: Adobe Illustrator 25.1.0, SVG Export Plug-In . SVG Version: 6.00 Build 0)  -->
<svg version="1.1" id="Layer_1" xmlns="http://www.w3.org/2000/svg" xmlns:xlink="http://www.w3.org/1999/xlink" x="0px" y="0px"
	 viewBox="0 0 200 200" style="enable-background:new 0 0 200 200;" xml:space="preserve">
<style type="text/css">
	.st0{fill:none;stroke:#FAD02C;stroke-width:2;stroke-linecap:round;stroke-linejoin:round;}
	.st1{fill:#FAD02C;}
	.st2{fill:none;stroke:#FFFFFF;stroke-width:2;stroke-linecap:round;stroke-linejoin:round;}
	.st3{fill:#FFFFFF;}
</style>
<g>
	<path class="st1" d="M157.48,152.7l-4.12,2.83c-0.86,0.17-1.54,0.35-2.06,0.52c-6.01,1.37-10.81,0.52-14.41-2.57
		c-5.15-4.29-9.26-11.84-12.35-22.65c-2.75-10.12-4.12-26.16-4.12-48.12c-0.17-5.83-0.26-10.46-0.26-13.9c0-0.17-0.09-0.6-0.26-1.29
		c-0.17-1.88-0.51-3.09-1.03-3.6c-2.23,0.34-4.63,1.72-7.21,4.12c-10.47,11.5-20.93,27.11-31.4,46.84
		c-1.54,2.57-3.52,6.52-5.92,11.84c-2.92,6.01-5.15,10.38-6.69,13.13c-0.52,1.89-1.8,2.66-3.86,2.31c-0.35-0.17-0.69-0.26-1.03-0.26
		c-1.2-1.37-1.72-4.2-1.54-8.49c1.2-8.4,5.32-22.9,12.35-43.49c0.52-1.71,0.94-3.17,1.29-4.38c0.68-1.88,1.63-4.63,2.83-8.24
		c2.74-8.57,4.46-15.01,5.15-19.3c0.17-5.15,0.08-8.4-0.26-9.78c-1.03-2.23-2.92-2.83-5.66-1.8l-0.52,0.26
		c-4.12,2.41-8.07,6.09-11.84,11.07c-6.52,9.61-11.32,21.96-14.41,37.06c-0.52,1.72-1.2,5.32-2.06,10.81c0,2.06-1.2,3.09-3.6,3.09
		c-1.54-0.34-2.57-1.03-3.09-2.06c-0.17-5.83,1.46-13.04,4.89-21.62c6.86-15.27,13.47-26.51,19.81-33.71
		c5.32-5.32,9.95-7.98,13.9-7.98c3.26,0,5.66,1.63,7.21,4.89c1.71,5.49,1.54,12.78-0.52,21.87c-0.86,4.29-4.72,16.56-11.58,36.8
		c-2.23,6.87-3.95,12.78-5.15,17.76l0.26,2.06c0.17-0.34,0.26-0.6,0.26-0.77c12.69-23.16,22.3-39.03,28.82-47.61
		c6.35-7.89,10.81-12.95,13.38-15.18c3.43-2.92,6.6-3.77,9.52-2.57c2.57,1.55,4.12,4.89,4.63,10.04c0.17,3.77,0.34,9.52,0.52,17.24
		c0.17,15.27,0.94,26.68,2.32,34.23c2.4,10.13,4.8,17.07,7.21,20.84c4.29,6.18,8.15,8.67,11.58,7.46
		c7.37-2.92,10.72-2.83,10.04,0.26L157.48,152.7z"/>
</g>
</svg>
